# xmcd
#
# Track frame offsets:
#	150
#	4184
#	13810
#	24212
#	37374
#	45692
#	55692
#	65798
#	75441
#	89305
#	98069
#	108595
#	117255
#	129129
#	141353
#	152844
#	163050
#	172009
#	179604
#	195350
#
# Disc length: 2793 seconds
#
# Revision: 1
# Processed by: cddbd v1.5.2PL0 Copyright (c) Steve Scherf et al.
# Submitted via: audiograbber 1.83.01
#
DISCID=0b0ae714
DTITLE=susan mccann (ireland) - collection - ireland's first lady of country mu
DTITLE=sic cd2
DYEAR=2011
DGENRE=Country
TTITLE0=buckaroo
TTITLE1=i'll love you forever and ever
TTITLE2=act naturally
TTITLE3=foolin' around
TTITLE4=love's gonna live here again
TTITLE5=gonna roll out the red carpet
TTITLE6=play second fiddle
TTITLE7=lay it on the line
TTITLE8=crying time
TTITLE9=we split the blanket down the middle
TTITLE10=above and beyond
TTITLE11=never was a fool
TTITLE12=excuse me (i think i've got a heartache)
TTITLE13=together again
TTITLE14=she doesn't deserve you anymore
TTITLE15=i've got a tiger by the tail
TTITLE16=it takes people like you (to make people like me)
TTITLE17=bulks polka
TTITLE18=darlin'
TTITLE19=lets go to vegas
EXTD=
EXTT0=
EXTT1=
EXTT2=
EXTT3=
EXTT4=
EXTT5=
EXTT6=
EXTT7=
EXTT8=
EXTT9=
EXTT10=
EXTT11=
EXTT12=
EXTT13=
EXTT14=
EXTT15=
EXTT16=
EXTT17=
EXTT18=
EXTT19=
PLAYORDER=
